<?xml version="1.0" encoding="utf-8"?>
<!-- Generator: Adobe Illustrator 16.0.0, SVG Export Plug-In . SVG Version: 6.00 Build 0)  -->
<!DOCTYPE svg PUBLIC "-//W3C//DTD SVG 1.1//EN" "http://www.w3.org/Graphics/SVG/1.1/DTD/svg11.dtd">
<svg version="1.1" id="Capa_1" xmlns="http://www.w3.org/2000/svg" xmlns:xlink="http://www.w3.org/1999/xlink" x="0px" y="0px"
	 width="600.292px" height="213.395px" viewBox="1.208 313.662 600.292 213.395"
	 enable-background="new 1.208 313.662 600.292 213.395" xml:space="preserve">
<title>Logo-ica</title>
<g id="Capa_2_1_">
	<g id="Capa_1-2">
		<rect y="264.943" fill="none" width="612" height="262.113"/>
		<path fill="#2F7338" d="M1.208,488.807h5.234v28.185H1.208V488.807z"/>
		<path fill="#2F7338" d="M11.274,496.054h4.429v2.416l0,0c1.208-2.013,3.624-3.624,6.04-3.221c4.429,0,6.442,3.623,6.442,8.053
			v13.286h-4.429v-11.273c0-2.416,0-6.039-3.221-6.039s-4.429,4.429-4.429,7.247v10.065h-4.832V496.054z"/>
		<path fill="#2F7338" d="M44.692,500.482c-1.208-0.402-2.818-0.805-4.429-0.805c-1.208,0-2.818,0.402-2.818,2.416
			c0,3.221,8.455,1.208,8.455,8.857c0,4.832-4.026,6.845-8.053,6.845c-2.013,0-3.624-0.402-5.637-0.805l0.403-4.43
			c1.61,0.806,3.221,1.208,4.832,1.208c1.208,0,3.221-0.402,3.221-2.416c0-4.025-8.456-1.207-8.456-8.857
			c0-3.624,2.818-6.442,6.442-6.442c0.402,0,0.402,0,0.805,0c1.61,0,3.624,0.403,5.234,0.806V500.482z"/>
		<path fill="#2F7338" d="M51.134,500.08h-3.624v-4.026h3.624v-4.026l4.832-1.61v6.04h4.429v4.025h-4.429v9.664
			c0,1.61,0.403,3.221,2.416,3.221c0.806,0,1.611,0,2.013-0.402v4.429c-1.208,0.402-2.416,0.402-3.624,0.402
			c-3.624,0-6.04-2.818-6.04-6.845L51.134,500.08z"/>
		<path fill="#2F7338" d="M63.616,487.196h4.832v5.234h-4.832V487.196z M63.616,496.054h4.832v20.938h-4.832V496.054z"/>
		<path fill="#2F7338" d="M75.292,500.08h-3.624v-4.026h3.624v-4.026l4.832-1.61v6.04h4.429v4.025h-4.429v9.664
			c0,1.61,0.403,3.221,2.416,3.221c0.805,0,1.61,0,2.013-0.402v4.429c-1.208,0.402-2.416,0.402-3.624,0.402
			c-4.026,0-6.039-2.818-6.039-6.845L75.292,500.08z"/>
		<path fill="#2F7338" d="M105.087,516.588h-4.429v-2.818l0,0c-1.208,2.014-3.624,3.222-6.039,3.222
			c-4.429,0-6.442-3.624-6.442-8.053v-13.287h4.429v11.273c0,2.416,0,6.04,3.221,6.04c3.221,0,4.429-4.43,4.429-6.845v-10.066h4.832
			V516.588z"/>
		<path fill="#2F7338" d="M111.529,500.08h-3.624v-4.026h3.624v-4.026l4.832-1.61v6.04h4.429v4.025h-4.429v9.664
			c0,1.61,0.403,3.221,2.416,3.221c0.805,0,1.61,0,2.013-0.402v4.429c-1.208,0.402-2.416,0.402-3.624,0.402
			c-4.026,0-6.04-2.818-6.04-6.845L111.529,500.08z"/>
		<path fill="#2F7338" d="M132.869,495.651c5.637,0,10.065,4.429,10.065,10.065c0,0.403,0,0.806,0,1.208
			c0.403,5.234-3.624,10.066-8.858,10.871c-5.234,0.402-10.065-3.624-10.871-8.857c0-0.403,0-1.208,0-1.611
			c-0.805-5.637,3.221-10.468,8.456-11.273C132.063,495.651,132.466,495.651,132.869,495.651z M132.869,512.965
			c3.624,0,4.832-3.624,4.832-7.248c0-3.623-1.611-6.039-4.832-6.039c-3.221,0-4.832,3.221-4.832,6.039
			C128.037,508.938,129.245,512.965,132.869,512.965z"/>
		<path fill="#2F7338" d="M175.547,516.186c-2.013,0.402-3.624,0.806-5.637,0.806c-6.845,0.805-13.287-4.43-14.092-11.274
			c0-0.805,0-1.61,0-2.818c0-9.663,5.234-14.897,14.092-14.897c2.013,0,4.026,0.403,5.637,1.208l-0.403,4.832
			c-1.61-1.208-3.624-1.61-5.637-1.61c-5.234,0-8.455,4.429-8.455,10.065c-0.805,4.832,2.818,9.261,7.65,10.065
			c0.403,0,0.805,0,0.805,0c2.013,0,3.624-0.402,5.637-1.208L175.547,516.186z"/>
		<path fill="#2F7338" d="M187.224,495.651c5.637,0,10.066,4.429,9.663,10.065c0,0.403,0,0.806,0,1.208
			c0.403,5.234-3.221,10.066-8.858,10.871c-5.637,0.806-10.065-3.221-10.871-8.857c0-0.806,0-1.611,0-2.014
			c-0.805-5.637,3.221-10.468,8.456-11.273C186.418,495.651,186.821,495.651,187.224,495.651z M187.224,512.965
			c3.624,0,4.832-3.624,4.832-7.248c0-3.623-1.61-6.039-4.832-6.039s-4.832,2.818-4.832,6.039
			C182.392,508.938,183.6,512.965,187.224,512.965z"/>
		<path fill="#2F7338" d="M200.913,486.391h4.832v30.197h-4.832V486.391z"/>
		<path fill="#2F7338" d="M219.434,495.651c5.637,0,10.066,4.429,9.663,10.065c0,0.403,0,0.806,0,1.208
			c0.403,5.234-3.624,10.066-8.858,10.871c-5.234,0.402-10.065-3.624-10.871-8.857c0-0.403,0-1.208,0-1.611
			c-0.805-5.637,3.221-10.468,8.456-11.273C218.629,495.651,219.032,495.651,219.434,495.651z M219.434,512.965
			c3.624,0,4.832-3.624,4.832-7.248c0-3.623-1.61-6.039-4.832-6.039c-3.221,0-4.832,3.221-4.832,6.039
			C215.005,508.938,215.811,512.965,219.434,512.965z"/>
		<path fill="#2F7338" d="M233.124,496.054h4.429v2.818l0,0c1.208-2.013,3.221-3.221,5.637-3.221s4.832,1.208,5.637,3.624
			c1.208-2.416,3.221-3.624,5.637-3.624c4.429,0,6.039,3.624,6.039,8.053v13.287h-4.832v-12.482c0-2.013,0-4.831-2.818-4.831
			s-3.624,4.429-3.624,6.845v10.065h-5.234v-12.481c0-2.013,0-4.831-2.818-4.831s-3.624,4.429-3.624,6.845v10.065h-4.832v-20.132
			H233.124z"/>
		<path fill="#2F7338" d="M265.334,486.391h4.832v12.079l0,0c1.208-2.013,3.221-3.221,5.637-3.221c5.637,0,7.65,5.233,7.65,10.871
			c0,5.637-2.013,10.871-7.65,10.871c-2.416,0-4.429-1.208-5.637-3.222l0,0v2.416h-4.832V486.391z M274.595,512.965
			c3.221,0,4.026-4.026,4.026-6.845s-0.805-6.442-4.026-6.442s-4.429,3.624-4.429,6.442S271.374,512.965,274.595,512.965
			L274.595,512.965z"/>
		<path fill="#2F7338" d="M287.881,487.196h4.832v5.234h-4.832V487.196z M287.881,496.054h4.832v20.938h-4.832V496.054z"/>
		<path fill="#2F7338" d="M298.35,497.262c2.014-0.805,4.43-1.61,6.442-1.61c5.637,0,8.053,2.818,8.053,8.857v2.819
			c0,2.013,0,3.623,0,5.233s0,3.222,0.402,4.832h-4.026c0-1.208,0-2.416-0.402-3.222l0,0c-1.208,2.014-3.221,3.624-5.637,3.624
			c-3.221,0.402-6.442-2.416-6.442-5.637v-0.402c-0.402-2.416,1.208-4.832,3.222-6.04c2.013-0.805,4.026-1.208,6.441-1.208h2.416
			c0-3.221-1.208-4.429-4.026-4.429c-2.013,0-4.026,0.806-5.637,2.416L298.35,497.262z M304.39,513.367
			c1.208,0,2.818-0.806,3.221-2.014c0.806-1.207,1.208-2.818,0.806-4.025h-2.014c-2.013,0-5.234,0.402-5.234,3.623
			C301.168,512.562,302.376,513.367,304.39,513.367L304.39,513.367z"/>
		<path fill="#2F7338" d="M317.677,496.054h4.831v2.416l0,0c1.208-2.013,3.624-3.221,6.04-3.221c4.429,0,6.441,3.623,6.441,8.053
			v13.286h-4.831v-11.273c0-2.416,0-6.039-3.222-6.039c-3.221,0-4.429,4.026-4.429,6.845v10.065h-4.831V496.054z"/>
		<path fill="#2F7338" d="M348.679,495.651c5.637,0,10.066,4.429,9.663,10.065c0,0.403,0,0.806,0,1.208
			c0.403,5.234-3.221,10.066-8.857,10.871c-5.234,0.402-10.066-3.221-10.871-8.857c0-0.806,0-1.611,0-2.014
			c-0.806-5.637,3.221-10.468,8.455-11.273C347.874,495.651,348.276,495.651,348.679,495.651z M348.679,512.965
			c3.624,0,4.832-3.624,4.832-7.248c0-3.623-1.61-6.039-4.832-6.039c-3.221,0-4.831,3.221-4.831,6.039
			C343.848,508.938,344.652,512.965,348.679,512.965z"/>
		<path fill="#2F7338" d="M380.084,488.807h5.637l10.066,28.185h-5.637l-2.416-6.442h-10.469l-2.416,6.442h-5.233L380.084,488.807z
			 M382.902,494.443L382.902,494.443l-3.623,11.677h7.247L382.902,494.443z"/>
		<path fill="#2F7338" d="M415.516,496.054v18.521c0,5.637-2.013,10.871-9.663,10.871c-2.416,0-4.429-0.403-6.442-1.61l0.403-4.43
			c1.61,1.208,3.623,1.611,5.234,2.014c5.233,0,5.637-4.429,5.637-8.053l0,0c-1.208,2.013-3.222,3.221-5.637,3.221
			c-5.638,0-7.65-4.831-7.65-10.468c0-5.638,2.416-10.871,8.053-10.871c2.416,0,4.831,1.208,5.637,3.221l0,0v-2.818L415.516,496.054
			z M410.685,506.12c0-3.624-1.208-6.442-4.026-6.442s-4.43,3.221-4.43,6.442c0,3.221,1.208,6.441,4.026,6.441
			S410.685,509.743,410.685,506.12z"/>
		<path fill="#2F7338" d="M420.75,496.054h4.429v4.832l0,0c0-2.014,2.014-5.234,5.234-5.234c0.402,0,1.208,0,1.61,0v5.234
			c-0.805-0.403-1.61-0.403-2.415-0.403c-4.026,0-4.026,5.234-4.026,8.456v7.649h-4.832V496.054z"/>
		<path fill="#2F7338" d="M442.895,495.651c5.637,0,10.066,4.429,10.066,10.065c0,0.403,0,0.806,0,1.208
			c0.402,5.234-3.624,10.066-8.858,10.871c-5.234,0.402-10.065-3.624-10.871-8.857c0-0.403,0-1.208,0-1.611
			c-0.805-5.637,3.222-10.468,8.455-11.273C442.09,495.651,442.492,495.651,442.895,495.651z M442.895,512.965
			c3.624,0,4.832-3.624,4.832-7.248c0-3.623-1.61-6.039-4.832-6.039c-3.221,0-4.831,3.221-4.831,6.039
			C438.063,508.938,438.868,512.965,442.895,512.965z"/>
		<path fill="#2F7338" d="M456.182,496.054h4.831v2.818l0,0c1.208-2.013,3.222-3.623,5.638-3.221c5.637,0,8.052,5.234,8.052,10.871
			s-2.013,10.871-8.052,10.871c-2.014,0-4.43-0.806-5.638-2.818l0,0v10.871h-4.831V496.054z M461.416,506.522
			c0,2.818,1.208,6.845,4.429,6.845s4.026-4.026,4.026-6.845s-0.806-6.442-4.026-6.442S461.416,503.302,461.416,506.522z"/>
		<path fill="#2F7338" d="M493.626,515.783c-2.013,1.208-4.026,1.61-6.441,1.61c-6.04,0-9.663-4.026-9.663-10.871
			c0-6.04,2.818-10.871,8.455-10.871c6.845,0,8.857,5.234,8.857,12.481H481.95c0,2.818,2.013,5.234,4.831,5.234h0.403
			c2.415,0,4.429-0.806,6.441-2.014V515.783L493.626,515.783z M490.405,504.509c0-2.818-1.208-4.831-4.026-4.831
			s-4.026,2.013-4.429,4.831H490.405z"/>
		<path fill="#2F7338" d="M510.939,500.482c-1.208-0.402-2.013-0.805-3.221-0.805c-3.222,0-4.832,2.818-4.832,6.442
			c0,4.026,1.61,6.845,5.234,6.845c1.208,0,2.416-0.403,3.624-0.806l0.402,4.429c-1.61,0.403-3.221,0.806-4.832,0.806
			c-6.039,0-9.26-4.832-9.26-10.871c0-6.04,3.221-10.871,8.857-10.871c1.61,0,3.221,0,4.832,0.806L510.939,500.482z"/>
		<path fill="#2F7338" d="M531.876,516.588h-4.429v-2.818l0,0c-1.208,2.014-3.624,3.222-6.039,3.222
			c-4.43,0-6.442-3.624-6.442-8.053v-13.287h4.832v11.273c0,2.416,0,6.04,3.221,6.04s4.429-4.43,4.429-6.845v-10.066h4.832
			L531.876,516.588z"/>
		<path fill="#2F7338" d="M537.916,497.262c2.013-0.805,4.429-1.61,6.442-1.61c5.637,0,8.052,2.818,8.052,8.857v2.819
			c0,2.013,0,3.623,0,5.233s0,3.222,0,4.832h-4.429c0-1.208-0.402-2.014-0.402-3.222l0,0c-1.208,2.014-3.222,3.624-5.637,3.624
			c-3.624,0-6.442-2.818-6.442-6.442c0-2.415,1.208-4.429,3.221-5.637c2.014-0.805,4.026-1.208,6.442-1.208h2.818
			c0-3.221-1.208-4.429-4.429-4.429c-2.014,0-4.026,0.806-5.637,2.416V497.262z M543.553,513.367c1.208,0,2.818-0.806,3.624-2.014
			c0.805-1.207,1.207-2.818,1.207-4.429h-2.013c-2.014,0-5.637,0.403-5.637,3.624C540.331,512.562,541.942,513.367,543.553,513.367
			L543.553,513.367z"/>
		<path fill="#2F7338" d="M557.242,496.054h4.429v4.832l0,0c0-2.014,2.416-5.234,5.234-5.234c0.402,0,1.208,0,1.61,0v5.234
			c-0.805-0.403-1.61-0.403-2.013-0.403c-4.026,0-4.026,5.234-4.026,8.456v7.649h-4.832L557.242,496.054z"/>
		<path fill="#2F7338" d="M571.334,487.196h4.832v5.234h-4.832V487.196z M571.334,496.054h4.832v20.938h-4.832V496.054z"/>
		<path fill="#2F7338" d="M589.855,495.651c5.637,0,10.065,4.429,10.065,10.065c0,0.403,0,0.806,0,1.208
			c0.402,5.234-3.623,10.066-8.857,10.871c-5.234,0.402-10.066-3.624-10.871-8.857c0-0.403,0-1.208,0-1.611
			c-0.806-5.637,3.221-10.468,8.455-11.273C589.05,495.651,589.452,495.651,589.855,495.651z M589.855,512.965
			c3.623,0,4.831-3.624,4.831-7.248c0-3.623-1.61-6.039-4.831-6.039c-3.222,0-4.832,3.221-4.832,6.039
			C585.427,508.938,586.231,512.965,589.855,512.965z"/>
		<polygon fill="#2F7338" points="436.452,344.665 436.452,344.665 436.855,344.665 442.895,347.08 444.505,347.886 
			444.103,347.483 466.65,337.82 459.806,335.807 432.427,330.17 403.84,334.196 413.503,337.82 		"/>
		<polygon fill="#85BB40" points="458.598,335.404 490.003,326.949 448.129,326.949 432.427,330.17 432.427,330.17 459.806,335.807 
			458.194,335.404 		"/>
		<polygon fill="#BFC630" points="481.145,348.691 489.6,344.262 468.261,338.222 466.65,337.82 444.103,347.483 444.505,347.886 
			445.311,347.886 446.519,348.691 468.261,358.354 468.261,358.354 473.897,360.77 489.6,350.704 485.977,349.898 		"/>
		<polygon fill="#009748" points="501.276,323.728 490.003,326.949 458.598,335.404 458.194,335.404 459.806,335.807 466.65,337.82 
			468.261,338.222 489.6,344.262 491.613,343.054 529.863,322.117 		"/>
		<polygon fill="#85BB40" points="539.526,316.48 529.863,322.117 491.613,343.054 489.6,344.262 481.145,348.691 485.977,349.898 
			489.6,350.704 497.652,345.873 497.652,345.873 519.395,349.496 521.811,347.483 522.616,346.678 558.45,320.909 558.853,320.507 
			559.255,320.507 564.892,316.48 		"/>
		<polygon fill="#BFC630" points="558.048,357.146 556.437,358.757 555.632,359.562 532.682,353.522 510.939,373.251 
			511.342,373.251 515.771,374.862 542.747,383.72 538.721,388.148 537.11,389.356 543.553,391.37 574.958,360.77 568.918,359.964 
					"/>
		<polygon fill="#009748" points="559.255,320.507 558.853,320.507 558.45,320.909 522.616,346.678 521.811,347.483 
			519.395,349.496 522.616,349.898 529.058,351.106 534.292,351.912 534.292,351.912 534.694,351.912 532.682,353.522 
			555.632,359.562 556.437,358.757 558.048,357.146 599.921,316.48 		"/>
		<polygon fill="#2F7338" points="371.227,363.588 393.371,353.12 368.005,335.807 339.016,341.443 370.823,373.251 
			378.474,369.627 375.655,367.212 		"/>
		<polygon fill="#85BB40" points="413.503,337.82 403.84,334.196 390.15,329.364 363.576,332.988 368.005,335.807 393.371,353.12 
			396.592,351.509 397.8,351.106 405.048,355.938 407.463,355.133 407.866,354.73 431.219,346.275 432.427,345.873 436.452,344.665 
					"/>
		<polygon fill="#BFC630" points="432.829,375.265 432.427,374.862 432.427,374.862 413.905,361.978 405.853,356.743 
			405.853,356.743 405.853,356.743 405.048,356.341 404.645,355.938 405.048,355.938 397.8,351.106 396.592,351.509 393.371,353.12 
			371.227,363.588 375.655,367.212 378.474,369.627 405.45,394.188 407.866,392.578 		"/>
		<polygon fill="#85BB40" points="467.455,364.796 473.495,360.77 473.897,360.77 468.261,358.354 468.261,358.354 469.065,358.757 
			469.065,359.159 441.284,376.875 473.092,397.813 474.702,396.604 475.508,396.201 498.86,376.875 		"/>
		<polygon fill="#8ABF45" points="432.427,374.862 432.427,374.862 432.829,375.265 432.829,375.265 		"/>
		<polygon fill="#009748" points="515.771,374.862 511.342,373.251 510.939,373.251 509.731,374.057 504.497,378.888 
			498.86,376.875 475.508,396.201 474.702,396.604 473.092,397.813 473.092,397.813 473.092,397.813 479.937,402.644 
			507.315,420.359 537.11,389.356 538.721,388.148 542.747,383.72 		"/>
		<polygon fill="#2F7338" points="534.292,351.912 534.292,351.912 529.058,351.106 522.616,349.898 519.395,349.496 
			497.652,345.873 497.652,345.873 489.6,350.704 473.897,360.77 473.495,360.77 467.455,364.796 498.86,376.875 504.497,378.888 
			509.731,374.057 510.939,373.251 532.682,353.522 534.694,351.912 		"/>
		<polygon fill="#13A654" points="445.311,347.886 444.505,347.886 444.908,347.886 		"/>
		<polygon fill="#009748" points="468.261,358.354 446.519,348.691 445.311,347.886 444.908,347.886 444.505,347.886 
			442.895,347.08 436.855,344.665 436.452,344.665 436.452,344.665 432.427,345.873 431.219,346.275 407.866,354.73 
			407.463,355.133 405.048,355.938 404.645,355.938 405.048,356.341 405.853,356.743 405.853,356.743 405.853,356.743 
			413.905,361.978 432.427,374.862 432.829,375.265 433.231,374.862 435.245,373.654 436.05,373.251 436.05,373.251 
			441.284,376.875 469.065,359.159 469.065,358.757 		"/>
		<polygon fill="#3D7F3C" points="473.092,397.813 473.092,397.813 473.897,398.617 		"/>
		<polygon fill="#BFC630" points="507.315,420.359 479.937,402.644 475.508,399.422 445.713,431.633 483.561,470.285 
			523.019,430.828 		"/>
		<path fill="#3D7F3C" d="M475.508,399.422l-1.61-0.805L475.508,399.422z"/>
		<polygon fill="#2F7338" points="473.897,398.617 473.092,397.813 441.284,376.875 436.05,373.251 436.05,373.251 435.245,373.654 
			433.231,374.862 432.829,375.265 432.829,375.265 407.866,392.578 408.671,393.786 445.713,432.035 445.713,431.633 
			475.508,399.422 		"/>
		<path fill="#3D7F3C" d="M406.658,365.602L406.658,365.602l-1.208,0.402L406.658,365.602c-1.208,0.402-2.014,0.805-2.818,1.208
			c-1.208,1.208,0.402,1.208,1.208,0.805c0.805-0.402,2.415-0.805,2.818-1.61C408.269,365.199,407.866,365.602,406.658,365.602"/>
		<path fill="#3D7F3C" d="M404.242,370.03h0.402c-2.013,0-2.013,4.429,0.806,3.624c0-0.402-0.402-1.208,0-1.61
			s1.208-0.403,1.208-1.208S405.048,370.03,404.242,370.03"/>
		<path fill="#3D7F3C" d="M401.021,367.614L401.021,367.614L401.021,367.614c-1.208,0.403-1.611,0.403-1.611,1.611
			s0,1.208,0.806,0.805c0.805-0.403,1.208-0.805,1.61-1.61C401.826,368.017,401.826,367.614,401.021,367.614"/>
		<path fill="#3D7F3C" d="M400.216,372.849c-0.402,0.403-0.806,0.805-1.208,1.208c-0.402,0.402-0.402,1.208-0.806,1.61
			c0,1.208,1.208,1.611,2.014,1.208C400.618,375.265,401.021,373.654,400.216,372.849"/>
		<path fill="#3D7F3C" d="M404.645,364.394l0.403-1.611c0-0.805-0.806-1.208-1.611-0.805h0.403c-1.611,1.208-2.818,4.026,0,2.818
			C404.242,364.796,404.242,365.199,404.645,364.394"/>
		<path fill="#3D7F3C" d="M395.787,368.822L395.787,368.822c-1.208,1.208-2.014,2.416-1.61,3.624c0.805,0,1.207-0.403,2.013-0.403
			c0-0.403,0.806-2.013,0.806-2.416C396.995,369.225,396.189,368.822,395.787,368.822"/>
		<path fill="#08A554" d="M475.105,432.438c0-0.403-0.403-0.806-0.403-1.208s-1.61,0.402-2.013,0.805
			c-1.208,1.611,0.402,2.416,2.013,2.416c1.611,0,1.611,0,1.611-1.208S475.508,432.841,475.105,432.438"/>
		<path fill="#08A554" d="M489.6,436.465c0-0.403,0.403-1.208,0-1.611c-0.402-0.805-1.208-0.805-2.013-0.805
			c-0.402,0.402-1.61,0.805-1.208,2.013s2.013,0.806,2.013,2.014C489.6,437.672,489.6,437.27,489.6,436.465"/>
		<path fill="#08A554" d="M474.3,423.982c0.402,0,1.208,1.208,1.61,0.403c0-0.403,0-0.806,0-0.806
			c-0.402-0.805-1.208-1.61-2.013-2.013c-0.402,0-1.61,0.402-1.61,1.208C472.287,423.58,473.897,423.58,474.3,423.982"/>
		<path fill="#08A554" d="M475.91,428.009c-0.402,0,0,0.806,0,1.208c0.403,1.208,0.403,1.611,1.611,2.014
			c0.402,0,0.402-1.61,0-2.014C477.118,428.814,476.716,428.009,475.91,428.009"/>
		<path fill="#08A554" d="M481.548,430.022L481.548,430.022c-1.208-0.806-1.208,1.61-0.806,2.416c0.402,0.805,1.61,2.013,2.416,1.61
			c0.402-0.806,0.805-1.61,0.402-2.416C483.158,431.23,482.353,431.23,481.548,430.022"/>
		<path fill="#08A554" d="M481.95,425.996c0-0.402,0-0.806-0.402-1.208c-0.403-0.806-1.208-1.61-2.014-2.416
			c-0.806,0.403-1.208,1.208-1.208,2.416c0.402,0.806,1.61,1.208,2.014,1.61C480.742,426.802,481.95,426.802,481.95,425.996"/>
		<path fill="#08A554" d="M487.989,428.412c0.806,0,1.61,0.402,1.208-0.806s-1.61-1.208-2.818-1.208c-0.402,0-0.806,0-0.806,0.403
			c-0.402,0.805-0.402,1.207,0,2.013c0.403,0.806,0.403,0.806,0.806,0.402C486.781,428.814,487.185,428.412,487.989,428.412"/>
		<path fill="#3D7F3C" d="M473.092,381.707c-0.402,0-0.805,0.403-1.208,0.403c-0.805,0-1.207,0.805,0,2.416
			c1.208,1.611,1.208,1.208,1.611,0l0.402-1.208c0,0,0.805-0.402,0-1.208C473.092,381.304,473.092,381.707,473.092,381.707"/>
		<path fill="#3D7F3C" d="M464.637,377.68h-0.402l0,0c-0.402,0-0.402,0.403-0.402,0.403c-1.208,0.805-0.806,2.013,0.402,3.624
			c0.402,0.403,0.402,1.208,1.208-0.403c0.402-0.805,0.805-1.61,0.805-2.416C465.845,378.083,465.442,377.68,464.637,377.68"/>
		<path fill="#3D7F3C" d="M476.716,376.875c-0.402,0-0.806,0-1.208,0c-1.61,0.403-1.61,2.416,0.806,2.416
			C478.729,379.291,478.729,377.68,476.716,376.875"/>
		<path fill="#3D7F3C" d="M469.065,374.459c1.611-0.402,3.624-2.013,0.806-2.416S467.455,375.265,469.065,374.459"/>
		<path fill="#3D7F3C" d="M471.481,380.499c0-0.805,0-2.013-0.402-2.818c-0.806-0.402-0.806,0-1.208,0h-0.402
			c-0.806,0-1.208,0.805-0.806,2.818c0.402,0.805,1.208,0.805,2.014,0.403C471.079,380.901,471.079,380.901,471.481,380.499"/>
		<path fill="#3D7F3C" d="M465.442,372.849c-0.403,0-0.403-2.818-2.416-0.402c-2.014,2.416,2.013,2.818,3.221,1.208
			C466.247,373.654,465.845,373.251,465.442,372.849"/>
		<path fill="#91BF3F" d="M513.355,357.146c-0.806-0.805-1.61-1.208-2.818-1.208c-0.403,0-0.403,0.403-0.403,0.403
			c0.806,0.805,1.208,1.61,2.416,2.013C513.355,358.757,513.355,357.549,513.355,357.146"/>
		<path fill="#91BF3F" d="M505.705,354.73L505.705,354.73c-0.805,0-1.208,0.402-1.208,0.805c0,0.402,0.806,0.402,1.611,0.402
			C508.927,355.938,506.511,354.73,505.705,354.73"/>
		<path fill="#91BF3F" d="M502.484,362.38c-0.402-0.403-0.402,0-0.806,0.402l0,0c-1.208,0.806,0,5.234,1.61,2.416
			C503.289,364.394,502.887,363.186,502.484,362.38"/>
		<path fill="#91BF3F" d="M506.913,358.354L506.913,358.354l-0.805,0.403c-0.403,0.402-1.208,0.805-1.208,1.61
			c0,0.402,0.805,0.805,1.208,0.805c0.402,0,0.402,0,0.402-0.403C507.315,360.367,507.719,359.159,506.913,358.354"/>
		<path fill="#91BF3F" d="M502.484,355.536h-0.806c-0.402,0-0.805,0.402-0.402,0.805c0.402,0.402,1.208,0,1.61,0
			C504.497,355.536,503.289,355.133,502.484,355.536"/>
		<path fill="#91BF3F" d="M494.834,363.186c-0.805,0.805-1.61,1.61-1.208,2.416c0.403,1.208,2.416-1.611,2.818-2.819l0,0
			C495.64,362.783,495.237,363.186,494.834,363.186"/>
		<path fill="#91BF3F" d="M495.237,359.159c0-0.402-0.403-0.402-0.806-0.402s-0.806,0-1.208,0.402c-1.208,1.208-2.416,4.026,0,2.818
			C494.029,361.575,495.64,360.367,495.237,359.159"/>
		<path fill="#91BF3F" d="M498.458,356.341c-1.208,0.402-3.624,2.818-0.402,2.013c0.805-0.403,2.013-1.208,2.013-1.611
			C500.068,356.341,498.86,356.341,498.458,356.341"/>
		<path fill="#91BF3F" d="M502.484,357.549c-1.208,0.402-3.222,4.429-0.806,2.818C502.484,359.964,503.289,357.951,502.484,357.549"
			/>
		<path fill="#91BF3F" d="M508.523,329.364c-0.805,0-1.61,0-2.415,0.403c-1.208,0.403-0.806,1.208,0.402,1.61
			c1.208,0.403,1.61-0.402,2.013-0.805c0-0.402,0.403-0.402,0.403-0.805C508.927,329.767,508.523,329.767,508.523,329.364"/>
		<path fill="#91BF3F" d="M486.379,331.78c-0.402,0.805,2.416,0,2.416-0.805l0,0l0,0C489.6,330.17,486.379,330.975,486.379,331.78"
			/>
		<path fill="#91BF3F" d="M487.587,334.599c-1.61,0-2.818,0.403-4.026,1.61C483.158,337.015,485.977,335.807,487.587,334.599
			C487.185,334.599,487.587,334.599,487.587,334.599"/>
		<path fill="#91BF3F" d="M485.977,332.988c-2.416,0.402-6.442,2.013-3.624,1.61c1.208-0.402,2.818-0.805,4.026-1.208
			C486.781,333.391,486.379,332.988,485.977,332.988"/>
		<path fill="#91BF3F" d="M481.548,333.391c0.402,0,3.221-1.208,3.221-1.208c-0.402,0-0.402,0-0.806,0
			C482.755,332.585,481.145,333.391,481.548,333.391"/>
		<path fill="#91BF3F" d="M490.405,331.377c0.402,0.403,1.61-0.402,2.416-0.805c0.402,0,0.402-0.402,0.805-0.402
			c0,0,0-0.403-0.402-0.403C491.613,330.17,490.003,330.975,490.405,331.377"/>
		<path fill="#91BF3F" d="M493.626,333.391c-1.208-0.402-2.013-0.402-3.221,0l-0.402,0.403c0,0.805,0.402,1.61,3.623,0
			C494.029,334.196,494.432,333.391,493.626,333.391"/>
		<path fill="#91BF3F" d="M493.224,330.975c-1.61,0.402-1.61,0.805-1.61,1.208c0,0.402,2.416-0.403,3.221-1.208
			C494.432,330.975,493.626,330.975,493.224,330.975"/>
		<path fill="#91BF3F" d="M502.887,330.975c0,0,0,0-0.402,0c-0.806,0-2.014,0.402-2.818,0.805c-0.403,0-0.403,0.403,0,0.403
			C500.874,332.585,504.497,331.78,502.887,330.975"/>
		<path fill="#91BF3F" d="M498.056,328.559c-0.806,0-4.026,0.805-2.416,1.208C497.652,329.364,498.458,328.559,498.056,328.559"/>
		<path fill="#91BF3F" d="M499.666,330.17C499.666,330.17,500.068,330.17,499.666,330.17c0.402-0.806-0.806-0.403-1.61,0
			c-0.806,0.402,0,0.402,0.402,0.402s0.402,0,0.402,0C499.263,330.572,499.666,330.17,499.666,330.17"/>
		<path fill="#91BF3F" d="M506.511,328.559c-1.208,0-2.416,0-3.624,0.805c0,0,0.402,0.403,0.806,0.403
			c0.402,0,1.208-0.403,1.61-0.403h1.208C506.511,328.962,506.913,328.962,506.511,328.559"/>
		<path fill="#91BF3F" d="M503.289,328.157L503.289,328.157c0.806-0.403,0.403-0.403,0-0.403c-0.402,0-0.402,0-0.805,0
			c-0.806,0-1.61,0.403-2.014,1.208C501.276,328.559,502.081,328.559,503.289,328.157"/>
		<polygon fill="#8ABF45" points="430.815,374.459 430.815,374.459 431.219,374.459 431.219,374.459 		"/>
		<path fill="#13A654" d="M443.7,347.08l-0.806-0.402L443.7,347.08z"/>
		<polygon fill="#3D7F3C" points="472.287,397.813 472.287,397.813 473.092,398.215 		"/>
		<path fill="#3D7F3C" d="M474.3,399.02l-1.208-0.805L474.3,399.02z"/>
		<path fill="#2F7338" d="M261.308,347.483L261.308,347.483l-22.547,63.213h44.692L261.308,347.483z M244.8,316.48h34.626
			l59.589,153.402h-33.821l-13.287-35.029h-61.603l-13.287,35.029H185.21L244.8,316.48z"/>
		<path fill="#2F7338" d="M164.273,442.102c-10.468,4.026-21.742,6.441-33.016,6.039c-32.613,0-51.939-23.353-51.939-54.758
			s19.729-55.563,51.134-55.563c11.676-0.403,22.95,2.416,33.016,8.053l0,0l2.818,1.61l3.221-25.769l-3.624-1.61l0,0
			c-10.871-4.026-22.547-6.04-34.626-6.442c-51.939,0-84.15,29.392-84.15,82.137c0,52.744,34.224,76.902,84.15,76.902
			c11.676-0.402,23.353-2.013,35.029-4.831l3.624-1.208l-3.221-25.366L164.273,442.102z"/>
		<path fill="#2F7338" d="M1.208,316.48h30.6v153.402h-30.6V316.48z"/>
	</g>
</g>
</svg>
