<svg width="118" height="95" viewBox="0 0 118 95" fill="none" xmlns="http://www.w3.org/2000/svg">
<mask id="mask0_49_45" style="mask-type:alpha" maskUnits="userSpaceOnUse" x="0" y="0" width="118" height="95">
<rect width="118" height="95" fill="#D9D9D9"/>
</mask>
<g mask="url(#mask0_49_45)">
<g clip-path="url(#clip0_49_45)">
<path d="M116.651 -12.1108C105.798 0.642028 93.4787 12.583 79.9391 23.4887C75.7979 26.8292 71.4998 30.1089 67.1648 33.2395C67.0996 33.2888 67.0304 33.3388 66.9644 33.3841C55.5002 41.6636 48.2131 46.9614 47.8456 49.7955C47.8114 50.0279 47.8278 50.2425 47.8877 50.4243C48.9514 52.5242 50.0497 54.6094 51.1776 56.6767C52.3905 53.6215 59.491 48.4534 70.2986 40.7292C70.3935 40.6619 70.4885 40.5947 70.5834 40.5275C75.042 37.349 79.4757 34.0191 83.7492 30.6331C96.4261 20.6131 108.125 9.73817 118.645 -1.74421L116.651 -12.1108Z" fill="url(#paint0_linear_49_45)"/>
<path d="M118.61 -1.93053C108.075 9.58338 96.3594 20.4819 83.6575 30.523C79.3768 33.9145 74.9359 37.2499 70.4733 40.4292C70.2874 40.5628 70.1015 40.6965 69.9116 40.8309C60.0101 47.9159 53.2123 52.8462 51.2446 56.0109C50.215 54.1099 49.2112 52.1918 48.2306 50.2651C48.1715 50.0873 48.1581 49.8885 48.1905 49.6688C48.2927 47.957 51.6382 44.3845 67.0754 33.4865C67.1302 33.4474 67.1809 33.409 67.2356 33.37C71.5771 30.23 75.8832 26.9487 80.0277 23.6035C93.543 12.7229 105.839 0.807027 116.684 -11.9158L116.61 -12.3043C105.74 0.488754 93.3935 12.4635 79.8427 23.3755C75.6186 26.7809 71.2835 30.084 66.8503 33.2865C53.919 42.5452 47.7981 47.3272 47.4975 49.9269C47.4617 50.1719 47.4796 50.3945 47.5425 50.5921C48.7853 53.0403 50.0705 55.4723 51.3976 57.8841C51.3226 57.6887 51.3047 57.4661 51.3333 57.2266C51.5689 54.6556 57.6402 49.8747 70.6897 40.6266C75.166 37.4324 79.5562 34.1354 83.8369 30.7439C96.4784 20.7553 108.161 9.89996 118.673 -1.55637L118.601 -1.93298L118.61 -1.93053Z" fill="url(#paint1_linear_49_45)"/>
<path d="M106.161 32.568C105.095 32.6747 103.269 33.5161 100.644 35.0302C94.6436 38.4995 88.1004 42.7901 81.5036 46.6513C74.2805 50.9018 66.4766 54.9373 58.9629 57.4185C57.348 57.9532 55.2737 58.5581 53.6794 58.5959C52.6552 58.6206 51.9643 58.3073 51.7483 57.7236C50.6468 55.7294 49.5806 53.7244 48.5401 51.7023C48.7763 51.744 49.0375 51.7645 49.327 51.7592C51.0194 51.7358 53.1898 51.1128 54.8752 50.5566C62.4593 48.0744 70.3066 44.0061 77.5518 39.698C84.0976 35.83 90.5786 31.5182 96.4838 28.0299C100.004 25.9486 101.982 25.1853 102.47 25.8696C103.709 28.1009 104.935 30.3345 106.16 32.5641L106.161 32.568Z" fill="url(#paint2_linear_49_45)"/>
<path d="M49.1069 51.9733C50.8577 51.9512 53.0794 51.3144 54.8041 50.7467C62.4362 48.2554 70.3101 44.1739 77.5785 39.8573C84.1098 36.0003 90.5771 31.7034 96.4532 28.2369C99.8032 26.2617 101.755 25.495 102.192 26.1029C103.361 28.2117 104.522 30.322 105.678 32.4291C104.535 32.7393 102.877 33.549 100.679 34.8223C94.6495 38.3135 88.0925 42.6191 81.4772 46.492C74.2774 50.734 66.4968 54.7609 59.0304 57.2292C57.4548 57.7523 55.4317 58.3434 53.8998 58.3818C52.942 58.4063 52.2964 58.1132 52.0905 57.5604C52.0905 57.5604 52.0897 57.5565 52.0889 57.5525C52.0889 57.5525 52.0882 57.5485 52.0874 57.5446C51.0685 55.6991 50.0761 53.8404 49.1102 51.9686M47.6997 50.8913C48.8946 53.2417 50.1272 55.5727 51.4064 57.8867C51.6232 58.4743 52.3065 58.8343 53.4634 58.8092C55.0041 58.7733 56.969 58.2465 58.8998 57.6071C73.3691 52.9142 88.1171 42.5528 100.617 35.2365C104.817 32.8051 106.423 32.4817 106.866 33.1047C105.503 30.6134 104.131 28.1197 102.748 25.6323C102.301 25.0101 100.699 25.3533 96.5249 27.8332C84.1124 35.2809 69.3829 45.7168 54.9522 50.3736C53.0327 51.0068 51.0751 51.5281 49.5569 51.5515C48.6223 51.5676 48.0059 51.3183 47.7052 50.8984L47.6997 50.8913Z" fill="url(#paint3_linear_49_45)"/>
<path d="M47.5468 50.5938C47.5843 50.7024 47.6324 50.8008 47.6996 50.8914C47.6476 50.7937 47.5988 50.6914 47.5468 50.5938Z" fill="url(#paint4_linear_49_45)"/>
<path d="M101.22 29.9182C92.8768 41.1995 78.7881 54.1683 57.3966 65.8403C34.4533 78.4828 8.67838 85.3575 -9.07206 87.8553C-16.4362 88.3323 -40.971 93.3709 -71.7094 87.1278L-70.0596 95.7026C-37.1898 101.293 -10.8982 96.2846 -3.58842 95.1153C13.8375 92.2679 39.0879 85.1471 61.6489 72.6096C82.6245 61.0612 96.5496 48.4067 104.891 37.3723C105.765 36.2255 107.091 34.0609 106.579 33.34C105.384 31.1621 104.185 28.981 102.977 26.8014C102.539 28.1042 101.391 29.6846 101.216 29.9189L101.22 29.9182Z" fill="url(#paint5_linear_49_45)"/>
<path d="M101.007 29.9294C92.0269 42.1729 76.6045 55.2824 57.2914 65.7243C37.536 76.5412 13.637 84.389 -9.11297 87.7066C-16.486 88.2017 -41.0032 93.2247 -71.7446 86.9657L-71.6813 87.2948C-40.938 93.5205 -16.3773 88.4647 -9.03651 87.9961C8.72518 85.4922 34.5233 78.609 57.4916 65.9453C78.9274 54.2445 93.0572 41.2308 101.421 29.9046C101.569 29.7041 102.379 28.59 102.922 27.4441C104.055 29.49 105.179 31.5374 106.303 33.5849C106.77 34.2445 105.504 36.2908 104.669 37.385C96.3558 48.369 82.4631 60.9763 61.5325 72.4997C39.0012 85.0193 13.7701 92.1325 -3.64058 94.9728C-10.9551 96.1389 -37.2227 101.143 -70.0924 95.5318L-70.0275 95.8688C-37.1344 101.451 -10.8331 96.4281 -3.53685 95.2531C18.8375 91.4929 42.2936 83.4781 61.7567 72.7163C80.7833 62.3161 96.0677 49.438 105.104 37.3604C105.788 36.4715 107.459 33.946 106.861 33.1016C105.518 30.6477 104.166 28.1954 102.811 25.7438C103.208 26.6876 101.662 29.0663 101.011 29.9286L101.007 29.9294Z" fill="url(#paint6_linear_49_45)"/>
<path d="M102.744 25.6313C102.764 25.672 102.787 25.708 102.807 25.7486C102.791 25.7072 102.767 25.6673 102.744 25.6313Z" fill="url(#paint7_linear_49_45)"/>
<path d="M114.498 -23.3018C103.383 -9.00005 90.4311 4.18176 75.9373 16.1014C71.8865 19.4372 67.67 22.7098 63.4045 25.8354C63.3393 25.8847 63.2733 25.93 63.2081 25.9793C51.9344 34.2351 44.6698 39.5204 44.25 42.385C44.2127 42.6221 44.2211 42.8382 44.2769 43.0208C45.2756 45.1494 46.3016 47.2687 47.3581 49.3741C48.636 46.2903 55.758 41.1263 66.4634 33.3885C66.5583 33.3213 66.6533 33.2541 66.7442 33.1876C71.1605 30.0047 75.5383 26.6648 79.7512 23.2656C93.3447 12.3168 105.7 0.323945 116.576 -12.4991L114.498 -23.3018Z" fill="url(#paint8_linear_49_45)"/>
<path d="M116.539 -12.6932C105.652 0.16063 93.2779 12.1858 79.6586 23.1517C75.4385 26.5564 71.0568 29.8971 66.6332 33.0855C66.4433 33.2199 66.2582 33.3575 66.0683 33.4919C56.2634 40.5833 49.4601 45.5064 47.4394 48.6975C46.4741 46.7639 45.5353 44.8171 44.6157 42.8625C44.5646 42.6832 44.5545 42.4797 44.5909 42.2592C44.7148 40.5309 48.1211 36.9511 63.3191 26.0817C63.3698 26.0434 63.4245 26.0043 63.4752 25.966C67.7479 22.8349 71.9717 19.5569 76.0257 16.2164C90.4905 4.31859 103.428 -8.83169 114.533 -23.0987L114.454 -23.507C103.324 -9.15713 90.3451 4.05846 75.8368 15.9891C71.707 19.389 67.4543 22.689 63.0931 25.8779C50.3764 35.1084 44.2507 39.8872 43.9051 42.5118C43.8653 42.7576 43.8759 42.9856 43.9356 43.188C45.0989 45.6758 46.2999 48.1443 47.5434 50.5964C47.4765 50.3995 47.4618 50.1722 47.4984 49.9312C47.795 47.3323 53.9191 42.5455 66.8512 33.2908C71.2852 30.0923 75.6195 26.7852 79.8436 23.3798C93.3984 12.4671 105.741 0.493059 116.61 -12.3L116.535 -12.6925L116.539 -12.6932Z" fill="url(#paint9_linear_49_45)"/>
<path d="M102.04 25.1005C100.976 25.2191 99.1579 26.0796 96.5506 27.623C90.5875 31.1552 84.0742 35.4936 77.5003 39.3875C70.3 43.6706 62.5072 47.7204 55.0185 50.1805C53.4116 50.7137 51.3478 51.3084 49.772 51.3344C48.7591 51.353 48.0874 51.0319 47.8898 50.4365C46.8606 48.4081 45.8627 46.3697 44.8872 44.3189C45.1195 44.3613 45.3767 44.3827 45.6588 44.3829C47.3208 44.3734 49.4727 43.7621 51.1428 43.2129C58.6579 40.7601 66.4476 36.6945 73.6282 32.3739C80.1173 28.492 86.5227 24.1534 92.3619 20.6241C95.8442 18.5171 97.801 17.733 98.2975 18.4158C99.5551 20.6394 100.802 22.8692 102.04 25.1005Z" fill="url(#paint10_linear_49_45)"/>
<path d="M45.438 44.5929C47.1583 44.5847 49.3575 43.9604 51.0669 43.3997C58.63 40.9379 66.451 36.8622 73.6501 32.53C80.1207 28.6597 86.5164 24.3353 92.3305 20.8271C95.6432 18.8302 97.5785 18.042 98.0229 18.6483C99.2113 20.7494 100.389 22.8567 101.558 24.9655C100.421 25.2907 98.7676 26.1203 96.5814 27.4159C90.5893 30.9699 84.0623 35.3233 77.4739 39.2281C70.2969 43.5027 62.5274 47.544 55.0899 49.9904C53.5224 50.512 51.5098 51.0929 49.9964 51.1196C49.049 51.1339 48.4227 50.833 48.2328 50.2773C48.2328 50.2773 48.232 50.2733 48.2313 50.2693C48.2313 50.2693 48.2305 50.2654 48.2297 50.2614C47.2751 48.3833 46.3477 46.4959 45.4388 44.5969M44.0805 43.4892C45.1991 45.8745 46.3563 48.2444 47.5472 50.5956C47.7447 51.191 48.4095 51.5626 49.5472 51.5453C51.0654 51.5218 53.023 51.0006 54.9426 50.3674C69.3692 45.7112 84.1027 35.2746 96.5153 27.8269C100.689 25.347 102.296 25.007 102.739 25.626C101.359 23.1338 99.9677 20.6478 98.5646 18.1641C98.1138 17.5466 96.519 17.905 92.3919 20.4129C80.1329 27.9467 65.5222 38.4177 51.2175 43.018C49.3173 43.6435 47.3781 44.153 45.8864 44.1632C44.9663 44.1684 44.3652 43.912 44.0845 43.4884L44.0805 43.4892Z" fill="url(#paint11_linear_49_45)"/>
<path d="M43.9396 43.1893C43.9731 43.2987 44.0211 43.397 44.0812 43.4931C44.0324 43.3908 43.9884 43.2916 43.9396 43.1893Z" fill="url(#paint12_linear_49_45)"/>
<path d="M97.0924 22.4805C88.8729 33.8658 74.7945 47.0177 53.223 58.703C30.082 71.3746 3.96275 77.9692 -13.9818 80.105C-20.4231 80.7202 -36.9513 83.2955 -59.0522 80.4763C-63.6377 79.9116 -68.4648 79.1049 -73.4596 78.0299L-71.7732 86.7949C-41.0408 93.072 -16.5494 88.0662 -9.14829 87.5658C8.56288 85.0795 34.288 78.2266 57.1918 65.6161C78.4845 54.0121 92.506 41.1257 100.798 29.9445C101.67 28.7818 102.982 26.5871 102.466 25.8708C101.259 23.6913 100.043 21.5132 98.82 19.3406C98.3955 20.649 97.2672 22.2463 97.0931 22.4845L97.0924 22.4805Z" fill="url(#paint13_linear_49_45)"/>
<path d="M96.8835 22.4949C88.0427 34.856 72.6034 48.1372 53.1264 58.5894C33.2086 69.4247 9.00189 77.0964 -14.0061 79.9572C-20.4171 80.579 -36.8019 83.1232 -58.7284 80.3696C-63.4185 79.8 -68.3638 78.9827 -73.4894 77.8749L-73.4284 78.1921C-68.5588 79.2413 -63.8467 80.0328 -59.3659 80.5926C-37.0913 83.4736 -20.419 80.8711 -13.9529 80.2553C4.00767 78.1164 30.1534 71.5087 53.3201 58.8199C74.9439 47.1041 89.0587 33.9044 97.2978 22.4702C97.446 22.2697 98.2413 21.1419 98.7748 19.9896C99.923 22.0325 101.063 24.0769 102.199 26.1221C102.79 26.9474 100.687 29.8418 100.586 29.9636C92.3175 41.0952 78.3324 53.9336 57.0881 65.508C34.2092 78.0973 8.50732 84.9417 -9.18859 87.421C-16.6089 87.9291 -41.0826 92.9193 -71.8061 86.6241L-71.7398 86.969C-40.9976 93.2319 -16.4812 88.2049 -9.10813 87.7098C13.6386 84.397 37.5409 76.5445 57.2963 65.7275C76.6133 55.2849 92.0318 42.1761 101.011 29.9326C101.693 29.0317 103.35 26.4721 102.747 25.6285C101.388 23.1776 100.021 20.7283 98.6371 18.2819C99.0464 19.2235 97.5247 21.6222 96.8835 22.4949Z" fill="url(#paint14_linear_49_45)"/>
<path d="M98.5698 18.1695C98.5898 18.2101 98.6131 18.2461 98.637 18.286C98.6209 18.2446 98.5969 18.2047 98.5698 18.1695Z" fill="url(#paint15_linear_49_45)"/>
<path d="M114.419 -23.7102L112.232 -35.0798C100.982 -18.9161 87.409 -4.34378 71.907 8.71916C67.9723 12.033 63.8679 15.2844 59.7066 18.3905C59.6414 18.4397 59.5794 18.4843 59.5142 18.5336C48.508 26.7348 41.3339 31.9949 40.8716 34.8756C40.8303 35.1135 40.8346 35.3304 40.8873 35.5176C41.825 37.6742 42.7899 39.8215 43.7814 41.9556C45.101 38.8515 52.1878 33.6983 62.7155 25.9858C62.8064 25.9194 62.9014 25.8522 62.9916 25.7817C67.3343 22.6045 71.6312 19.2757 75.7497 15.882C90.2959 3.91136 103.287 -9.32708 114.42 -23.7063L114.419 -23.7102Z" fill="url(#paint16_linear_49_45)"/>
<path d="M114.459 -23.5041L114.379 -23.9164C103.238 -9.49453 90.2275 3.77222 75.6563 15.764C71.5306 19.1632 67.2304 22.4967 62.8837 25.6747C62.7051 25.8029 62.5312 25.9343 62.3525 26.0625C52.6988 33.1418 45.9276 38.0588 43.8764 41.2639C42.9721 39.3024 42.087 37.3331 41.2204 35.3521C41.1733 35.172 41.1672 34.9677 41.2028 34.7433C41.3412 33.0041 44.7716 29.4197 59.6155 18.6295C59.6622 18.5919 59.7137 18.5575 59.7604 18.52C63.933 15.4077 68.0487 12.1501 71.9898 8.82676C87.4676 -4.21107 101.017 -18.7543 112.263 -34.8721L112.179 -35.3082C100.919 -19.0892 87.3173 -4.47441 71.8016 8.60344C67.7928 11.9847 63.6514 15.2595 59.3983 18.428C46.9843 27.5932 40.9092 32.3543 40.5298 34.9976C40.486 35.2441 40.4927 35.4729 40.5484 35.676C41.6426 38.1933 42.7721 40.6999 43.9346 43.1838C43.8749 42.9814 43.8642 42.7534 43.9041 42.5076C44.2497 39.883 50.3761 35.1081 63.0921 25.8737C67.4533 22.6848 71.706 19.3848 75.8357 15.9849C90.3433 4.05029 103.322 -9.16531 114.453 -23.5113L114.459 -23.5041Z" fill="url(#paint17_linear_49_45)"/>
<path d="M97.8622 17.6433C96.7995 17.7698 95.0024 18.6511 92.4229 20.2098C86.5265 23.7869 80.0929 28.1514 73.5756 32.0592C66.4448 36.358 58.7048 40.402 51.2891 42.8319C49.6975 43.358 47.6529 43.945 46.1069 43.9531C45.1084 43.9607 44.46 43.6311 44.2777 43.0287C43.3135 40.9717 42.3758 38.9014 41.4573 36.8233C41.6823 36.8713 41.9315 36.8941 42.2097 36.8951C43.8411 36.8996 45.9545 36.3037 47.6014 35.763C55.0042 33.352 62.6978 29.3045 69.76 24.994C76.1467 21.119 82.4427 16.7723 88.1821 13.2207C91.6078 11.0997 93.5376 10.3043 94.0413 10.9817C95.3262 13.196 96.5958 15.4173 97.8535 17.6408L97.8622 17.6433Z" fill="url(#paint18_linear_49_45)"/>
<path d="M41.9951 37.1122C43.6809 37.1188 45.8456 36.5092 47.5277 35.9577C54.9826 33.5369 62.6995 29.4808 69.7874 25.1532C76.1596 21.2891 82.4419 16.9573 88.1563 13.4269C91.4123 11.416 93.3246 10.6157 93.7722 11.2173C94.9839 13.3099 96.1843 15.4087 97.3775 17.5129C96.2473 17.8494 94.6168 18.691 92.4544 20.0026C86.5291 23.6016 80.0818 27.981 73.554 31.899C66.4457 36.1853 58.7337 40.224 51.3693 42.6402C49.8169 43.1548 47.8236 43.728 46.3367 43.7414C45.4046 43.7488 44.7935 43.4409 44.6261 42.8727C44.6261 42.8727 44.6254 42.8687 44.6246 42.8648C44.6246 42.8648 44.6238 42.8608 44.6231 42.8568C43.7294 40.9508 42.855 39.037 42.0031 37.1107M40.6874 35.9868C41.741 38.4008 42.8259 40.8049 43.9405 43.191C44.1236 43.7973 44.7651 44.1775 45.8835 44.1679C47.3792 44.1569 49.3144 43.6481 51.2146 43.0226C65.5233 38.4216 80.1348 27.9546 92.3891 20.4176C96.5161 17.9096 98.1102 17.5473 98.5617 18.1687C97.1586 15.685 95.7395 13.2043 94.3059 10.7346C93.8471 10.1186 92.2681 10.4945 88.2104 13.0182C76.1756 20.596 61.7857 31.05 47.6744 35.5768C45.8014 36.193 43.8967 36.6878 42.4323 36.6888C41.5314 36.6862 40.9495 36.4221 40.6801 35.9923L40.6874 35.9868Z" fill="url(#paint19_linear_49_45)"/>
<path d="M40.5529 35.6778C40.5824 35.7879 40.6272 35.891 40.6864 35.9831C40.6417 35.88 40.5969 35.7769 40.5529 35.6778Z" fill="url(#paint20_linear_49_45)"/>
<path d="M92.9085 15.0535C84.89 26.4913 70.9352 39.7677 49.319 51.4368C26.1341 64.0961 -0.183188 70.4158 -18.2347 72.1898C-25.9898 72.9419 -47.8457 75.5156 -75.213 68.916L-73.5221 77.7049C-68.2752 78.8391 -63.211 79.6709 -58.4201 80.2462C-36.6673 82.938 -20.4251 80.429 -14.0342 79.811C3.8711 77.6867 29.9318 71.1113 53.0253 58.4734C74.4932 46.8527 88.5019 33.7921 96.6701 22.5069C97.5307 21.3298 98.8157 19.1237 98.2956 18.4043C97.0687 16.2325 95.829 14.0589 94.5788 11.8956C94.1758 13.2082 93.0738 14.8128 92.9077 15.0495L92.9085 15.0535Z" fill="url(#paint21_linear_49_45)"/>
<path d="M92.7003 15.0718C84.0747 27.495 68.7407 40.8919 49.2263 51.3224C29.2759 62.1392 4.90063 69.625 -18.2463 72.0437C-26.0087 72.8013 -47.8646 75.375 -75.2398 68.7564L-75.178 69.0775C-47.8217 75.6627 -25.9578 73.0875 -18.2147 72.3376C-0.143934 70.5559 26.2014 64.2309 49.4152 51.5497C71.0837 39.8502 85.0749 26.5258 93.1171 15.0384C93.2604 14.8347 94.0383 13.702 94.5502 12.5456C95.7216 14.58 96.881 16.6167 98.0332 18.6588C98.5076 19.3129 97.2836 21.4048 96.4619 22.5252C88.3198 33.7521 74.3482 46.7688 52.9286 58.3597C29.8641 70.9758 3.82589 77.5387 -14.0586 79.6632C-20.4248 80.2807 -36.5276 82.7593 -58.1067 80.1292C-63.0015 79.553 -68.1814 78.7019 -73.5503 77.5373L-73.4855 77.8742C-68.3639 78.9828 -63.4146 79.7993 -58.7244 80.3689C-36.7979 83.1225 -20.4131 80.5784 -14.0021 79.9566C9.00106 77.0925 33.2118 69.42 53.1304 58.5887C72.6114 48.1357 88.0426 34.8561 96.8875 22.4942C97.5586 21.583 99.1867 19.0041 98.5733 18.1667C97.1899 15.7203 95.7952 13.2803 94.386 10.8511C94.8066 11.7865 93.3287 14.1974 92.705 15.075L92.7003 15.0718Z" fill="url(#paint22_linear_49_45)"/>
<path d="M94.3136 10.7351C94.3369 10.7712 94.357 10.8119 94.3803 10.848C94.3602 10.8073 94.3401 10.7665 94.3136 10.7351Z" fill="url(#paint23_linear_49_45)"/>
</g>
</g>
<defs>
<linearGradient id="paint0_linear_49_45" x1="110.569" y1="16.6961" x2="80.5976" y2="23.1095" gradientUnits="userSpaceOnUse">
<stop offset="0.02" stop-color="#F81F13"/>
<stop offset="1" stop-color="#5B0020"/>
</linearGradient>
<linearGradient id="paint1_linear_49_45" x1="114.048" y1="17.6222" x2="80.1305" y2="23.576" gradientUnits="userSpaceOnUse">
<stop offset="0.02" stop-color="#F81F13"/>
<stop offset="1" stop-color="#5B0020"/>
</linearGradient>
<linearGradient id="paint2_linear_49_45" x1="42.0934" y1="47.5692" x2="65.5344" y2="43.9289" gradientUnits="userSpaceOnUse">
<stop offset="0.02" stop-color="#F81F13"/>
<stop offset="1" stop-color="#5B0020"/>
</linearGradient>
<linearGradient id="paint3_linear_49_45" x1="42.207" y1="47.524" x2="65.6795" y2="43.8788" gradientUnits="userSpaceOnUse">
<stop offset="0.02" stop-color="#F81F13"/>
<stop offset="1" stop-color="#5B0020"/>
</linearGradient>
<linearGradient id="paint4_linear_49_45" x1="47.5039" y1="50.6719" x2="47.7442" y2="50.8182" gradientUnits="userSpaceOnUse">
<stop stop-color="#0051DC"/>
<stop offset="0.99" stop-color="#051936"/>
</linearGradient>
<linearGradient id="paint5_linear_49_45" x1="-7.23618" y1="85.0099" x2="-123.382" y2="192.626" gradientUnits="userSpaceOnUse">
<stop offset="0.02" stop-color="#F81F13"/>
<stop offset="1" stop-color="#5B0020"/>
</linearGradient>
<linearGradient id="paint6_linear_49_45" x1="-7.64943" y1="85.3892" x2="-123.57" y2="192.795" gradientUnits="userSpaceOnUse">
<stop offset="0.02" stop-color="#F81F13"/>
<stop offset="1" stop-color="#5B0020"/>
</linearGradient>
<linearGradient id="paint7_linear_49_45" x1="102.78" y1="25.681" x2="102.774" y2="25.6913" gradientUnits="userSpaceOnUse">
<stop offset="0.02" stop-color="#F81F13"/>
<stop offset="1" stop-color="#5B0020"/>
</linearGradient>
<linearGradient id="paint8_linear_49_45" x1="110.83" y1="-1.10002" x2="69.4037" y2="18.8766" gradientUnits="userSpaceOnUse">
<stop stop-color="#0051DC"/>
<stop offset="0.99" stop-color="#051936"/>
</linearGradient>
<linearGradient id="paint9_linear_49_45" x1="99.556" y1="4.49978" x2="59.9823" y2="24.1823" gradientUnits="userSpaceOnUse">
<stop stop-color="#0051DC"/>
<stop offset="0.99" stop-color="#051936"/>
</linearGradient>
<linearGradient id="paint10_linear_49_45" x1="30.0777" y1="38.0317" x2="57.3882" y2="35.944" gradientUnits="userSpaceOnUse">
<stop stop-color="#0051DC"/>
<stop offset="0.99" stop-color="#051936"/>
</linearGradient>
<linearGradient id="paint11_linear_49_45" x1="30.222" y1="37.9907" x2="57.5416" y2="35.9037" gradientUnits="userSpaceOnUse">
<stop stop-color="#0051DC"/>
<stop offset="0.99" stop-color="#051936"/>
</linearGradient>
<linearGradient id="paint12_linear_49_45" x1="43.9605" y1="43.3475" x2="44.0347" y2="43.3351" gradientUnits="userSpaceOnUse">
<stop stop-color="#0051DC"/>
<stop offset="0.99" stop-color="#051936"/>
</linearGradient>
<linearGradient id="paint13_linear_49_45" x1="-48.9479" y1="112.515" x2="-157.595" y2="214.045" gradientUnits="userSpaceOnUse">
<stop stop-color="#0051DC"/>
<stop offset="0.99" stop-color="#051936"/>
</linearGradient>
<linearGradient id="paint14_linear_49_45" x1="-20.1629" y1="81.814" x2="-145.788" y2="176.909" gradientUnits="userSpaceOnUse">
<stop stop-color="#0051DC"/>
<stop offset="0.99" stop-color="#051936"/>
</linearGradient>
<linearGradient id="paint15_linear_49_45" x1="98.6044" y1="18.222" x2="98.6023" y2="18.2254" gradientUnits="userSpaceOnUse">
<stop stop-color="#0051DC"/>
<stop offset="0.99" stop-color="#051936"/>
</linearGradient>
<linearGradient id="paint16_linear_49_45" x1="34.241" y1="25.7745" x2="104.98" y2="-11.0551" gradientUnits="userSpaceOnUse">
<stop offset="0.02" stop-color="#F87200"/>
<stop offset="0.99" stop-color="#F8E545"/>
</linearGradient>
<linearGradient id="paint17_linear_49_45" x1="48.2282" y1="20.2735" x2="83.0366" y2="0.837555" gradientUnits="userSpaceOnUse">
<stop offset="0.02" stop-color="#F87200"/>
<stop offset="0.99" stop-color="#F8E545"/>
</linearGradient>
<linearGradient id="paint18_linear_49_45" x1="72.1117" y1="26.8469" x2="32.4517" y2="38.0874" gradientUnits="userSpaceOnUse">
<stop offset="0.02" stop-color="#F87200"/>
<stop offset="0.99" stop-color="#F8E545"/>
</linearGradient>
<linearGradient id="paint19_linear_49_45" x1="72.2155" y1="26.7953" x2="32.4591" y2="38.0537" gradientUnits="userSpaceOnUse">
<stop offset="0.02" stop-color="#F87200"/>
<stop offset="0.99" stop-color="#F8E545"/>
</linearGradient>
<linearGradient id="paint20_linear_49_45" x1="59.6861" y1="31.6987" x2="40.5205" y2="35.9327" gradientUnits="userSpaceOnUse">
<stop offset="0.02" stop-color="#F87200"/>
<stop offset="0.99" stop-color="#F8E545"/>
</linearGradient>
<linearGradient id="paint21_linear_49_45" x1="-198.354" y1="-80.4846" x2="62.2114" y2="78.9297" gradientUnits="userSpaceOnUse">
<stop offset="0.02" stop-color="#F87200"/>
<stop offset="0.99" stop-color="#F8E545"/>
</linearGradient>
<linearGradient id="paint22_linear_49_45" x1="-199.444" y1="-81.5305" x2="62.5253" y2="78.743" gradientUnits="userSpaceOnUse">
<stop offset="0.02" stop-color="#F87200"/>
<stop offset="0.99" stop-color="#F8E545"/>
</linearGradient>
<linearGradient id="paint23_linear_49_45" x1="40.4803" y1="-21.5238" x2="100.869" y2="15.417" gradientUnits="userSpaceOnUse">
<stop offset="0.02" stop-color="#F87200"/>
<stop offset="0.99" stop-color="#F8E545"/>
</linearGradient>
<clipPath id="clip0_49_45">
<rect width="106.887" height="202.07" fill="white" transform="matrix(-0.188933 -0.98199 0.982672 -0.185353 -67.8057 107.417)"/>
</clipPath>
</defs>
</svg>
