<svg width="584" height="159" viewBox="0 0 584 159" fill="none" xmlns="http://www.w3.org/2000/svg">
<g clip-path="url(#clip0_1_13)">
<path d="M504.77 153.78C504.63 155.82 503.51 158.8 500.06 158.6C314.32 147.89 292.37 148.02 116.73 157.97C114.28 158.11 104.67 159.92 109.72 145.45C306.56 124.34 500.15 146.32 500.15 146.32C503.48 146.53 504.92 151.5 504.77 153.78Z" fill="white"/>
<path d="M460.43 126.91L504.78 129.19C496.33 125.29 490.96 121.71 487.52 113.46L452.81 30.2L412.93 105.44C409.04 112.76 404.09 119.57 396.12 122.33L395.34 102.88C392.98 112.76 387.24 117.06 378.05 116.84L353.38 116.27C351.59 114.85 350.37 110.84 350.42 108.25L351.65 49.69C351.8 42.14 354.66 36.55 361.76 33.3L317.48 32.41C324.25 35.36 331.19 38.44 331.06 45.81L329.97 108.34C329.85 115.23 325.77 119.83 319.82 122.71L396.35 123.99L429.41 124.85L423.4 119.29C421.81 115.49 423.19 111.25 425.25 107.91L465.39 110.17C466.74 113.52 467.25 117.07 466.84 120.44C466.38 124.23 463.57 124.79 460.43 126.91ZM430.39 97.21L447.77 64.4L461.54 98.61L430.39 97.21Z" fill="white"/>
<path d="M110.26 127.19C116.09 124.04 119.41 119.02 119.14 111.98L116.88 53.66C116.54 44.8 111.55 40.43 102.21 37.55L138.67 35.76C137.12 37.87 134.84 38.15 134.39 39.47C133.58 41.83 134.57 44.27 136.53 45.84L195.41 93.09L189.5 51.75C188.23 42.89 183.51 37.31 174.05 34.61L211.06 32.85C204.13 36.41 201.64 42.28 201.95 49.89L204.39 125.95L126.46 64.54L132.03 110.79C133.05 119.25 138.28 123.39 147.28 125.68L110.25 127.18L110.26 127.19Z" fill="white"/>
<path d="M65.84 130.76L110.22 126.72C101.4 124.46 95.05 120.88 90.62 113.35L44.77 35.32L14.82 118.62C12.04 126.33 7.57 131.66 0 136.13L37.17 133.07C32.93 130.98 29.52 130.79 27.83 127.61C26.22 124.56 26.67 120.57 28.48 116.96L68.59 113.42L70.85 120.47C72.35 125.15 69.92 127.39 65.84 130.76ZM32.2 105.52L41.26 79.8L44.15 71.34C46.39 72.11 46.35 73.62 46.74 74.75C46.9 75.2 47.43 76.05 47.78 76.37C48.78 77.28 49.39 78.7 49.69 80.01C49.82 80.44 50.35 81.13 50.61 81.54L51.84 83.69L63.04 102.87L32.2 105.52Z" fill="white"/>
<path d="M298.48 106.23L259.15 25.64L221.94 108.1C218.77 115.12 213.71 119.49 206.94 122.56L243.75 122.36C240.35 119.93 236.74 120.13 235.08 116.77C233.48 113.54 234.52 108.92 236.43 105.6L263 105.26C267.67 105.2 272.01 104.51 276.77 105.26C278.82 109.79 279.25 114.85 277.2 119.53C275.69 120.07 273.86 120.07 273.17 122.44L300.19 122.31C305.98 122.29 311.36 122.71 316.67 121.1C307.88 118.34 302.22 113.89 298.48 106.23ZM241.01 94.34L254.34 65.43C254.93 64.16 254.5 62.3 256.51 61.29L259.67 68.06L272.47 94.59L241.01 94.34Z" fill="white"/>
<path d="M519.6 107.99C522.82 115.66 528.18 123.25 536.55 125.97C547.39 129.5 559.35 127.38 568.87 122.58C571.98 121.01 574.86 118.91 576.37 115C577.5 121.93 575.44 128.63 575.4 136.38L537.61 133.05C528.4 132.24 519.02 130.56 511.54 125.08C499.54 116.29 493.46 102.44 493.68 87.74C494.05 62.08 508.76 42.72 534.12 41.17C551.22 40.13 568.13 43.57 583.71 50.65C583.43 58.11 583.49 64.57 581.34 71.69L568.91 59.54C558.42 51.01 544.38 46.16 530.97 48.66C514.61 51.71 511.84 89.52 519.6 107.99Z" fill="white"/>
<path d="M540.65 22.92C540.19 23.81 538.46 24.84 537.01 24.89C537.01 24.89 329.38 0.17001 51.4901 23.66C47.7801 23.97 45.5701 15 47.9201 12.62C51.5101 8.98001 56.9901 9.04001 61.5101 8.72001C317.48 -9.11999 466.1 4.97001 536.7 10.93C537.84 11.03 539.45 11.61 540.68 13.45C541.63 14.88 541.49 21.3 540.65 22.92Z" fill="white"/>
</g>
<defs>
<clipPath id="clip0_1_13">
<rect width="583.71" height="158.61" fill="white"/>
</clipPath>
</defs>
</svg>
